<?xml version="1.0" standalone="no"?><!DOCTYPE svg PUBLIC "-//W3C//DTD SVG 1.1//EN" "http://www.w3.org/Graphics/SVG/1.1/DTD/svg11.dtd"><svg class="icon" height="512" viewBox="0 0 1024 1024" version="1.1" xmlns="http://www.w3.org/2000/svg"><path d="M512 1024C229.21216 1024 0 794.78784 0 512S229.21216 0 512 0 1024 229.21216 1024 512 794.78784 1024 512 1024zM327.68 450.56V245.76a40.96 40.96 0 0 1 40.96-40.96h286.72a40.96 40.96 0 0 1 40.96 40.96v204.8h40.96V245.76a81.92 81.92 0 0 0-81.92-81.92H368.64a81.92 81.92 0 0 0-81.92 81.92v204.8h40.96z m42.3936 0H286.72a81.92 81.92 0 0 0-81.92 81.92v204.8a81.92 81.92 0 0 0 81.92 81.92h450.56a81.92 81.92 0 0 0 81.92-81.92v-204.8a81.92 81.92 0 0 0-81.92-81.92h-83.3536a40.96 40.96 0 0 0-40.5504 35.14368 102.4 102.4 0 0 1-202.752 0 40.96 40.96 0 0 0-40.5504-35.14368z m126.40256-43.008L449.41312 360.448c-5.98016-5.98016-17.32608-4.34176-25.31328 3.6864-8.02816 7.94624-9.6256 19.29216-3.64544 25.31328l65.16736 65.1264c3.6864 3.6864 9.33888 4.5056 15.03232 2.78528a15.60576 15.60576 0 0 0 8.23296-4.3008l148.97152-148.97152c6.84032-6.84032 5.9392-18.88256-2.048-26.86976-8.02816-7.9872-20.0704-8.92928-26.91072-2.048L496.4352 407.552z" fill="#3ABC38" /><path d="M286.72 491.52a40.96 40.96 0 0 0-40.96 40.96v204.8a40.96 40.96 0 0 0 40.96 40.96h450.56a40.96 40.96 0 0 0 40.96-40.96v-204.8a40.96 40.96 0 0 0-40.96-40.96h-83.3536a143.36 143.36 0 0 1-283.8528 0H286.72z" fill="#3ABC38" /></svg>